<?xml version="1.0" encoding="utf-8"?>
<svg version="1.1" id="Layer_1" x="0px" y="0px" viewBox="0 0 32 32" enable-background="new 0 0 800 300" xmlns="http://www.w3.org/2000/svg">
  <g id="logo__item--logo_0" style="" transform="matrix(0.144736, 0, 0, 0.144736, 4.295955, -5.918014)">
    <g transform="translate(-33.15990560676016 -17) scale(1.584974472952939 1.584974472952939) rotate(0 0 0)">
      <g>
        <path fill="#009688" d="M88.822,51.582v25.966l29.179,74.943c0,0,8.908,18.303-16.57,22.763H43.308 c0,0-23.747-2.478-18.054-21.281l30.664-76.424V51.582H88.822z"/>
        <g>
          <g>
            <path fill="#004D40" d="M89.438,48.563H54.435c-2.835,0-5.141-2.522-5.141-5.638c0-3.118,2.305-5.64,5.141-5.64h35.003 c2.848,0,5.15,2.522,5.15,5.64C94.588,46.041,92.285,48.563,89.438,48.563z"/>
          </g>
        </g>
        <path fill="#FFFFFF" d="M80.204,93.979c3.756,0,6.819,3.67,6.819,8.215c0,4.525-3.065,8.204-6.819,8.204 c-3.765,0-6.819-3.679-6.819-8.204C73.385,97.647,76.439,93.979,80.204,93.979z"/>
        <ellipse fill="#FFFFFF" cx="59.271" cy="108.362" rx="5.748" ry="6.928"/>
        <path fill="#004D40" d="M91.417,75.827v-12.35c0,0,15.661-3.453,23.488,14.763C114.905,78.239,102.707,87.127,91.417,75.827z"/>
        <path fill="#004D40" d="M53.059,75.827v-12.35c0,0-15.663-3.453-23.486,14.763C29.573,78.239,41.759,87.127,53.059,75.827z"/>
        <path fill="#FFFFFF" d="M100.833,126.935c-25.467-7.9-46.878-3.659-57.343-0.453l-10.553,25.401 c-4.751,15.164,15.087,17.157,15.087,17.157h48.545c21.279-3.595,13.842-18.347,13.842-18.347L100.833,126.935z"/>
        <path fill="#004D40" d="M64.131,136.373c0,2.739-3.681,4.967-8.215,4.967c-4.534,0-8.204-2.229-8.204-4.967 c0-2.75,3.67-4.97,8.204-4.97C60.452,131.405,64.131,133.623,64.131,136.373z"/>
        <path fill="#004D40" d="M93.345,136.373c0,2.739-3.681,4.967-8.204,4.967c-4.547,0-8.215-2.229-8.215-4.967 c0-2.75,3.668-4.97,8.215-4.97C89.666,131.405,93.345,133.623,93.345,136.373z"/>
      </g>
    </g>
  </g>
</svg>