<?xml version="1.0" encoding="utf-8"?>
<svg viewBox="0 0 16 16" xmlns="http://www.w3.org/2000/svg" xmlns:bx="https://boxy-svg.com">
  <rect x="0.045" y="0.032" width="16" height="16" style="fill: rgb(204, 102, 153);" bx:origin="-0.001875 -0.002"/>
  <path fill="#ffffff" d="M 6.301 10.913 C 6.428 11.38 6.414 11.82 6.283 12.213 L 6.236 12.344 C 6.218 12.388 6.198 12.431 6.179 12.471 C 6.078 12.681 5.943 12.877 5.777 13.058 C 5.27 13.609 4.566 13.817 4.262 13.641 C 3.935 13.452 4.099 12.673 4.687 12.052 C 5.317 11.389 6.223 10.96 6.223 10.96 L 6.223 10.958 L 6.301 10.913 Z M 13.487 3.04 C 13.093 1.494 10.532 0.983 8.107 1.846 C 6.663 2.36 5.102 3.166 3.979 4.215 C 2.642 5.464 2.429 6.552 2.517 7.006 C 2.826 8.609 5.023 9.657 5.927 10.435 L 5.927 10.44 C 5.66 10.57 3.712 11.549 3.255 12.561 C 2.765 13.625 3.331 14.387 3.701 14.485 C 4.842 14.8 6.018 14.224 6.648 13.29 C 7.256 12.375 7.202 11.201 6.941 10.624 C 7.301 10.527 7.724 10.482 8.269 10.548 C 9.791 10.722 10.095 11.679 10.029 12.07 C 9.964 12.462 9.649 12.691 9.541 12.756 C 9.431 12.822 9.399 12.843 9.41 12.886 C 9.421 12.951 9.476 12.951 9.562 12.941 C 9.683 12.919 10.356 12.615 10.39 11.875 C 10.422 10.94 9.53 9.895 7.942 9.919 C 7.289 9.928 6.875 9.983 6.582 10.102 C 6.561 10.069 6.54 10.048 6.506 10.026 C 5.528 8.972 3.712 8.232 3.788 6.829 C 3.81 6.318 3.995 4.969 7.268 3.338 C 9.955 2.001 12.097 2.371 12.466 3.187 C 13 4.35 11.324 6.513 8.529 6.829 C 7.463 6.949 6.908 6.536 6.768 6.384 C 6.615 6.22 6.593 6.209 6.54 6.242 C 6.453 6.285 6.506 6.426 6.54 6.513 C 6.626 6.731 6.962 7.112 7.55 7.307 C 8.061 7.471 9.312 7.569 10.812 6.98 C 12.499 6.328 13.815 4.512 13.434 2.99 L 13.487 3.04 Z" style=""/>
</svg>