<?xml version="1.0" encoding="utf-8"?>
<svg width="400" height="400" xmlns="http://www.w3.org/2000/svg">
  <g fill-rule="evenodd">
    <path fill="#24bbb3" d="M 308.385 42.747 C 291.592 47.695 286.182 68.132 298.409 80.431 C 316.373 98.503 346.092 77.215 334.575 54.525 C 329.702 44.925 318.338 39.815 308.385 42.747 M 86 49.21 C 75.626 50.343 65.497 58.131 61.515 68.42 L 61.184 185.169 C 61.184 185.169 100.839 176 100.967 176 C 101.095 176 101.389 101.862 101.552 101.448 C 101.797 100.824 156.145 175.2 156.145 175.2 L 170.8 175.2 L 173.9 165.288 C 175.605 165.038 179.61 164.548 182.8 164.2 C 185.99 163.852 194.016 162.724 194.016 162.724 C 194.016 162.724 119.289 56.769 112.071 53.329 C 107.067 50.944 94.728 48.256 86 49.21 M 335.195 91.368 C 325.096 98.429 294.737 91.6 294.617 91.6 C 294.498 91.6 294.4 175.2 294.4 175.2 C 294.4 175.2 308.785 175.345 309.109 175.669 C 309.468 176.028 309.839 176.019 310.689 175.631 C 317.817 172.378 328.058 172.938 333.147 176.859 C 333.668 177.261 334.253 177.491 334.447 177.371 M 204 205.976 C 204 210.48 204.111 210.668 206.134 209.584 C 208.122 208.519 208.549 208.588 209.302 210.1 C 209.936 211.374 209.949 211.306 209.974 206.7 L 210 202 L 204 202 L 204 205.976 M 61.507 308.8 C 61.676 308.8 62.5 308.334 63.339 307.764 C 70.493 302.902 99.866 307.86 100.212 308.419 C 101.098 309.854 101.163 238.757 100.5 238.954 C 95.755 240.367 61.2 228.616 61.2 228.616 M 243.613 234.707 L 243.6 238.414 L 226.1 238.405 C 211.73 238.398 204.995 239.573 204.5 239.582 C 204.005 239.592 203.6 239.799 203.6 240.041 C 203.6 240.472 271.504 333.701 273.562 336.513 C 282.065 348.134 288.787 351.6 302.819 351.6 C 318.894 351.6 329.409 344.692 333.872 331.2 C 334.559 329.125 334.6 238.6 334.6 238.6 L 294.4 238.393 C 294.4 238.393 294.23 298.848 294.035 299.157 C 293.769 299.577 293.228 299.083 291.842 297.157 C 291.132 296.165 290.413 295.179 289.685 294.2 C 289.259 293.661 244.591 232.24 244.249 231.8 M 76.577 313.151 C 59.279 317.129 52.871 338.372 65.156 351.011 C 74.375 360.495 89.458 360.145 98.253 350.242 C 112.679 333.997 97.662 308.302 76.577 313.151"/>
    <path fill="#050505" d="M 267 153.065 C 258.847 154.271 255.049 164.445 260.454 170.6 C 264.693 175.428 273.168 175.695 277.455 171.135 C 284.763 163.362 277.874 151.456 267 153.065 M 177.223 171.287 L 171.8 181.8 L 171.8 195.4 L 177 195.8 C 177 195.8 177.621 219.805 178.191 221.6 C 180.647 229.337 184.774 232.719 193.321 233.998 C 200.357 235.051 213.925 231.04 211.648 228.58 C 211.455 228.371 205.897 217.633 205.897 217.633 C 205.897 217.633 197.6 217.465 197.6 204.74 L 197.6 195.6 C 197.6 195.6 206.716 195.566 206.96 194.7 C 207.37 193.24 208.954 183.177 208.997 181.44 L 197.62 181.578 L 197.4 169 M 52.809 183.988 C 38.298 171.782 25.853 186.446 25.853 186.446 C 25.853 186.446 24.694 183.023 24.679 182.583 C 24.607 180.427 6.2 181.8 6.2 181.8 L 6.097 206.892 L 5.994 231.983 L 26.6 232.2 L 26.809 198.502 C 26.809 198.502 32.128 193.957 33.134 194.962 C 33.73 195.558 34.2 232.2 34.2 232.2 L 55.055 232.475 C 55.055 232.475 54.836 178.748 54.653 188.907 M 83.8 179.84 C 70.268 181.687 62.508 189.785 61.22 203.404 C 60.081 215.441 63.027 228.651 72.706 230.338 C 72.706 230.338 79.722 237.94 98.2 232.937 C 104.409 231.647 110.4 226.881 110.4 226.544 C 110.4 226.377 103.245 216.862 102.343 215.829 C 102.151 215.61 81.6 219.416 81.6 213.225 C 81.6 212.933 86.286 212.8 96.61 212.8 L 112.173 212.795 C 115.304 201.257 110.66 192.007 105.406 186.581 C 100.99 182.021 90.896 178.872 83.8 179.84 M 319 179.843 C 315.116 180.369 311.463 182.023 308.391 184.644 C 306.109 186.593 306.023 186.581 305.231 184.2 C 304.331 181.497 304.723 181.6 295.394 181.6 C 288.004 181.6 286.854 181.683 286.643 182.233 C 286.143 183.536 286.371 231.411 286.88 231.92 C 287.227 232.267 306.8 232.4 306.8 232.4 C 306.8 232.4 306.63 198.259 310.075 195.487 C 314.091 192.256 314.4 232.414 314.4 232.414 L 334.6 232.2 C 334.6 232.2 337.39 190.724 334.469 187.172 C 327.211 178.344 324.203 179.138 319 179.843 M 363.4 179.848 C 349.042 181.286 339.469 192.278 340.414 206.954 C 340.643 210.513 341.641 216.9 341.641 216.9 C 345.224 230.71 361.366 237.804 377.18 232.518 C 389.257 228.481 395.405 216.397 393.188 201.057 C 391.11 186.682 379.276 178.257 363.4 179.848 M 245.283 180.855 C 242.493 181.927 239.105 185.238 237.735 188.23 C 236.534 190.853 234.587 181.8 234.587 181.8 L 225.69 181.692 L 216.794 181.585 L 216.897 206.892 L 217 232.2 L 237 232.2 L 237.218 220.6 C 237.452 208.083 237.584 207.251 239.941 203.345 C 241.66 200.496 251.119 201.263 251.21 200.362 C 251.266 199.812 255.431 181.946 253.61 181.028 C 250.973 179.699 247.741 179.911 245.283 180.855 M 118.673 181.86 C 118.203 182.33 118.355 220.412 118.838 223.027 C 121.029 234.906 135.956 238.34 145.165 229.082 C 147.076 227.162 148.229 232.2 148.229 232.2 C 148.229 232.2 165.448 232.467 165.945 232.345 L 165.8 181.8 L 145.6 181.586 L 145.6 215.845 C 145.6 215.845 141.766 219.707 140.739 219.381 C 139.079 218.854 138.6 181.8 138.6 181.8 C 138.6 181.8 118.824 181.709 118.673 181.86 M 258.8 232.4 C 258.8 232.4 279.145 232.321 279.357 231.767 C 279.674 230.941 279.674 183.059 279.357 182.233 C 279.145 181.679 258.8 181.6 258.8 181.6 M 90.281 193.3 C 91.75 194.912 92.795 200.374 91.793 201.206 C 91.484 201.463 81.8 201.4 81.8 201.4 C 81.8 201.4 87.103 189.813 90.281 193.3 M 370.044 195.5 C 374.056 199.939 373.633 216.19 369.435 218.941 C 367.367 220.295 363.956 219.36 362.751 217.108 C 360.717 213.307 360.741 200.633 362.79 196.817 C 364.232 194.129 368.162 193.416 370.044 195.5"/>
  </g>
</svg>