<?xml version="1.0" encoding="UTF-8" standalone="no"?>
<svg version="1.1" viewBox="0 0 32 32" xmlns="http://www.w3.org/2000/svg" xmlns:xlink="http://www.w3.org/1999/xlink">
  <g fill="#010101">
    <path d="M5.766 3.76C2.013 4.784.819 6.035.819 8.992c0 1.933.284 2.672 1.421 3.582 1.479 1.08 5.914 2.332 8.53 2.332 1.308 0 1.422-.228 1.422-2.446v-2.445l-3.98-.625C.988 8.252.988 6.205 8.153 5.068c2.56-.398 4.038-.91 4.038-1.365 0-.91-2.787-.91-6.426.057zM.819 15.531c0 1.365.227 2.787.455 3.185.682 1.08 4.265 2.388 7.733 2.786l3.185.398v-2.672c0-2.332-.114-2.616-1.308-2.616-2.218 0-7.961-1.706-9.042-2.673C.875 13.086.82 13.143.82 15.531zm0 6.824c0 1.365.227 2.787.455 3.185.682 1.08 4.265 2.388 7.733 2.786l3.185.398v-2.673c0-2.331-.114-2.615-1.308-2.615-2.218 0-7.961-1.706-9.042-2.673C.875 19.91.82 19.967.82 22.355zM14.34 28.972V3.752h7.018c1.584 0 2.793.121 3.626.362a6.482 6.482 0 0 1 2.988 1.806c1.074 1.124 1.875 2.564 2.403 4.318.538 1.744.806 3.74.806 5.987 0 1.915-.18 3.613-.542 5.092-.36 1.48-.824 2.707-1.39 3.682-.564.963-1.185 1.725-1.86 2.287-.668.55-1.478.97-2.433 1.256-.944.287-2.033.43-3.265.43h-7.35zm2.696-2.976h4.35c1.343 0 2.394-.155 3.154-.464.768-.31 1.38-.746 1.834-1.308.639-.79 1.135-1.852 1.487-3.182.36-1.342.541-2.965.541-4.869 0-2.637-.352-4.662-1.056-6.072-.694-1.422-1.542-2.374-2.542-2.856-.723-.344-1.885-.516-3.488-.516h-4.28v19.267z"/>
  </g>
</svg>
